<svg xmlns="http://www.w3.org/2000/svg" viewBox="0 0 32 32">
  <path fill="#ea596e" d="M26.57 23.7c0 .26-.06.58-.13.86a5.36 5.36 0 0 1-5.51 3.85c-2.68-.18-4.86-1.46-4.86-3.26s2.18-3.26 4.86-3.26 5.63.01 5.64 1.81z"/>
  <path fill="#dd2e44" d="M20.93 22.19c-1.44 0-4.73.4-5.48.4-1.33 0-2.41.83-2.41 1.87 0 .5.25.94.66 1.27 0 0 .9.9 2.5.47.7-.19 1.86-1.59 3.87-1.81 1-.11 2.9.67 6.2.69.15-.31.17-.52.17-.52 0-1.8-2.83-2.37-5.51-2.37z"/>
  <path fill="#f4abba" d="M26.44 24.56s1.95-.4 3.15-1.99c1.41-1.85 1.23-3.83 1.23-3.83 1.42-2.67-.45-5.17-.45-5.17-.19-2.81-1.93-3.98-1.93-3.98-1.13-2.68-3.62-3.4-3.62-3.4-1.97-2.3-5.45-2.23-5.45-2.23s-3.26-1.2-7.74.15c-.74.22-3.22.74-5.04 1.85C.87 9.46.44 14.93.52 15.82c.44 4.96 3.92 5.85 6.15 6.36.51 1.41 2.42 4 5.85 3.04 4.22-.74 6-2 7.04-2s3.92 1.11 6.88 1.34z"/>
  <g fill="#ea596e">
    <path d="M15.77 16.58c2.07-1.12 3.19-1.02 4.18-.93.31.03.61.05.91.05a5.47 5.47 0 0 0 3.83-1.5.45.45 0 0 0-.67-.59 4.6 4.6 0 0 1-3.18 1.2c-.27.01-.53-.01-.81-.04-1.06-.1-2.38-.22-4.69 1.02-.59.32-1.4.44-2.28.53a5.4 5.4 0 0 1-.44-5.86l.1.01c.36 0 .71-.08 1.04-.27a.44.44 0 0 0-.44-.77c-.57.32-1.32.14-1.67-.41a.44.44 0 0 0-.75.48c.21.32.5.57.84.74a6.35 6.35 0 0 0 .33 6.18 7.36 7.36 0 0 0-3.27.87c-.6.39-1.2.95-1.67 1.6-.56-.1-2.6-.6-2.97-2.88.23-.17.4-.4.52-.68a.44.44 0 1 0-.83-.32.69.69 0 0 1-.4.4.7.7 0 0 1-.58-.06.44.44 0 0 0-.43.78c.26.14.53.21.8.21l.1-.02a4.31 4.31 0 0 0 3.3 3.38c-.15.34-.25.7-.29 1.06-.02.24.16.46.4.48h.05c.22 0 .42-.17.44-.4.1-1.08 1.12-2.21 2.04-2.8.86-.55 2.1-.67 3.32-.78 1.18-.11 2.3-.21 3.17-.68zm11.43-1.34a.45.45 0 0 0 .78.43c.02-.03 1.64-3.07-1.4-5.11a.44.44 0 0 0-.5.74 2.97 2.97 0 0 1 1.12 3.94zM8.78 8.06c.14 0 .27-.06.36-.18a2.77 2.77 0 0 1 3.15-1.15.44.44 0 0 0 .3-.84 3.67 3.67 0 0 0-4.17 1.47.44.44 0 0 0 .36.7zM20.4 6.38a3.13 3.13 0 0 1 2.92 1.34.45.45 0 0 0 .76-.45 4.01 4.01 0 0 0-3.75-1.77.44.44 0 0 0 .07.88zm8.13 13c-.22-.02-.46.15-.48.4 0 .01-.14 1.53-1.7 2.04a.44.44 0 0 0 .14.86c.05 0 .1 0 .14-.02 2.11-.69 2.3-2.72 2.3-2.8a.45.45 0 0 0-.4-.49z"/>
    <path d="M6.53 15.05a.44.44 0 1 0 .86.23c.17-.63.82-1.03 1.47-.9a.45.45 0 0 0 .18-.87 2.1 2.1 0 0 0-1.11.08 6.21 6.21 0 0 1-.83-3.54.45.45 0 0 0-.38-.5.45.45 0 0 0-.5.38 7 7 0 0 0 .94 4.1c-.3.27-.52.62-.63 1.02zm9.94-2.2a.95.95 0 0 1 1.3.02.45.45 0 0 0 .62-.01.44.44 0 0 0-.01-.63c-.2-.2-.45-.33-.7-.41.26-.9.15-1.3-.1-2.06l-.13-.44-.03-.09c-.32-1.07-.54-1.78.08-2.78a.44.44 0 0 0-.76-.47c-.82 1.34-.52 2.35-.17 3.51l.03.09.14.46c.22.67.29.9.02 1.72a1.8 1.8 0 0 0-.9.45.45.45 0 0 0 .6.65zm5.66-2.65c.25 0 .52-.05.76-.17a.44.44 0 0 0-.38-.8.95.95 0 0 1-1.23-.4.44.44 0 1 0-.78.42c.16.3.4.53.67.69-.47 1.16-.2 2.4.02 3.05a.44.44 0 1 0 .84-.29c-.15-.44-.44-1.56 0-2.51l.1.01zm4.26 8.38a.44.44 0 0 0-.47-.41c-.9.06-1.67-.62-1.73-1.51a.45.45 0 0 0-.48-.42.45.45 0 0 0-.41.48c.04.52.24 1 .54 1.38a3.37 3.37 0 0 1-2.17 1.14c-.46.06-.87 0-1.33-.05-.43-.05-.92-.1-1.51-.08a2.07 2.07 0 0 0-.28-.94.45.45 0 0 0-.75.48c.12.19.14.5.14.64-.45.16-.84.4-1.19.63-.62.4-1.12.72-1.86.56a5.42 5.42 0 0 0-1.91-.1 1.96 1.96 0 0 0-.45-.7.44.44 0 0 0-.61.65c.08.07.14.17.19.28a3.63 3.63 0 0 0-1.5 1.1.44.44 0 0 0 .36.7c.14 0 .28-.06.36-.18 0 0 .5-.66 1.46-.92.5-.14 1.21-.13 1.9.03.2.05.38.06.56.07.08.19.11.42.12.5.01.24.2.42.44.42h.02a.44.44 0 0 0 .42-.46c0-.05-.02-.3-.11-.61.4-.15.76-.38 1.1-.6.5-.33.99-.64 1.62-.67.52-.01.96.04 1.38.09.42.04.83.08 1.29.05.08.22.07.53.06.63a.45.45 0 0 0 .44.5c.22 0 .41-.17.44-.4 0-.05.05-.45-.05-.86a4.15 4.15 0 0 0 2.08-1.31 2.5 2.5 0 0 0 1.48.37.44.44 0 0 0 .4-.48z"/>
  </g>
</svg>
